<svg xmlns="http://www.w3.org/2000/svg" width="110" height="54"><path fill="#43aaf3" d="M28.205 23.841L39.544 2.133A1.307 1.307 0 0 0 39.357.88C39.076.5 38.71.31 38.255.31h-4.402c-.711 0-1.141.332-1.292.988L20.879 23.891 35.805 52.85c.15.607.58.912 1.29.912h4.404c.403 0 .732-.139.984-.417.255-.279.38-.594.38-.949 0-.202-14.658-28.554-14.658-28.554zm-20.978.074L.638 36.387c-.15.457-.087.874.19 1.254.278.379.645.569 1.1.569H6.33c.71 0 1.138-.331 1.29-.987l6.932-13.358-6.397-12.221c-.15-.607-.58-.91-1.289-.91H2.463c-.404 0-.735.137-.987.418-.252.279-.38.593-.38.949 0 .201 6.131 11.814 6.131 11.814z"/><path fill="#f0f" d="M20.86 9.697l-4.373-8.474c-.15-.608-.58-.91-1.289-.91h-4.402c-.406 0-.735.137-.989.417-.252.277-.38.594-.38.949 0 .125 4.412 8.683 7.75 15.143zm-3.693 21.26L9.504 45.624c-.151.454-.09.872.19 1.25.279.38.646.57 1.102.57h4.402c.708 0 1.138-.33 1.289-.987l4.344-8.397z"/><path fill="#0c1324" d="M52.667 23.846l3.525 9.282s-.806-.003-1.42-.003c-.613 0-.819-.496-.819-.496l-2.303-6.282-2.508 6.78h-2.057l3.526-9.281-3.548-9.305h1.284c.903 0 1.003.566 1.003.566l2.3 6.238 2.486-6.804h2.08zm16.481-8.279v17.56h-1.92V14.542s-.047.01.96 0c1.005-.01.96 1.026.96 1.026zm11.16 3.07c0-1.17.386-2.174 1.157-3.008.772-.832 2.308-1.065 3.41-1.065 1.103 0 2.638.232 3.41 1.065.772.835 1.157 1.838 1.157 3.009v10.438c0 1.172-.385 2.174-1.157 3.008-.772.833-2.307 1.066-3.41 1.066-1.088 0-2.62-.232-3.399-1.065-.779-.835-1.168-1.837-1.168-3.009zm1.874 10.44c0 .615.206 1.141.617 1.576.412.437 1.503.47 2.076.47.573 0 1.664-.033 2.076-.47a2.21 2.21 0 0 0 .617-1.576v-10.44c0-.615-.206-1.14-.617-1.576-.412-.435-1.503-.47-2.076-.47-.573 0-1.664.035-2.076.47a2.216 2.216 0 0 0-.617 1.577zm25.671-.894V14.542h1.92v18.585s-.571-.003-1.307-.003c-.737 0-.935-.54-.935-.54l-4.917-12.99v13.533h-1.921V14.541s.593.01 1.39 0c.799-.01.93.617.93.617z"/></svg>