<svg xmlns="http://www.w3.org/2000/svg" viewBox="0 0 77.73 90.9"><defs><style>.cls-1{opacity:.35}.cls-2{fill:#371a45}.cls-3{fill:#fff}.cls-4{opacity:.7}.cls-8{opacity:.6}.cls-10{fill:#fd8699}.cls-12{fill:#6b184e}</style></defs><g id="Layer_2" data-name="Layer 2"><g id="Layer_1-2" data-name="Layer 1"><g class="cls-1"><path class="cls-2" d="M61.71 50.27C54.15 55.32 48 53.74 48 53.74l-5.6-1.48c3.4-2.43 11.85-2.43 19.69-5.47A9.36 9.36 0 0 0 68 39.88c.69 2.76-1.16 6.97-6.29 10.39z"/></g><path class="cls-3" d="M61.71 50.27C54.15 55.32 48 53.74 48 53.74l-5.6-1.48-29.61-7.79s-4.68-.34-9.7-8.47c-6.32-10.31.29-18 7.1-10.37A36.59 36.59 0 0 0 14.82 30a14.88 14.88 0 0 0 4.55 2.71l28.55 7.64a12 12 0 0 0 2.87 0 31.42 31.42 0 0 0 9-2.49c4.63-2 7.61-.64 8.26 2s-1.21 6.99-6.34 10.41z"/><path class="cls-2" d="M48.05 53.83l-35.28-9.28S8 44.12 3 36c-3.63-5.92-3-11-.53-12.87 1.65-1.21 4.55-1.22 7.76 2.4A36.48 36.48 0 0 0 14.87 30a14.65 14.65 0 0 0 4.53 2.7l28.54 7.64a12.56 12.56 0 0 0 2.84 0 31.3 31.3 0 0 0 8.94-2.48c2.54-1.08 4.81-1.24 6.39-.45a3.71 3.71 0 0 1 2 2.52c.65 2.67-1 7-6.33 10.48-7.22 4.74-13.19 3.59-13.73 3.42zM12.8 44.39l29.62 7.79 5.64 1.48c.06 0 6.17 1.51 13.6-3.45l.05.06-.05-.06c5.22-3.49 6.91-7.69 6.27-10.31A3.57 3.57 0 0 0 66 37.48c-1.53-.76-3.75-.6-6.24.46a31.41 31.41 0 0 1-9 2.49 12.77 12.77 0 0 1-2.88 0l-28.53-7.6a14.82 14.82 0 0 1-4.58-2.73 35.47 35.47 0 0 1-4.64-4.46c-2.63-3-5.52-3.87-7.54-2.37C.2 25-.42 30.08 3.16 35.92c4.93 8.08 9.59 8.46 9.64 8.47z"/><path class="cls-2" d="M48 54.28h-.1L12.7 45c-.58-.06-5.19-.82-10.06-8.76C-1.17 30-.45 24.76 2.23 22.78c1.8-1.34 4.94-1.39 8.35 2.46 5.23 5.9 8.9 7 8.94 7L48 39.87c.35.05 4.54.48 11.53-2.49 4.71-2 7.51-.65 8.56 1.3 1.57 2.9 0 8-6.11 12-7.23 4.88-13.15 3.78-13.98 3.6zm.17-1.05c.11 0 6 1.43 13.25-3.4 5.5-3.67 7.07-8.23 5.76-10.65-1.05-2-3.82-2.28-7.22-.83-7.58 3.22-11.96 2.59-12.12 2.57h-.06l-28.54-7.66c-.17 0-4-1.15-9.45-7.32-2.46-2.78-5.12-3.66-6.93-2.32-2.24 1.66-2.76 6.45.68 12.06 4.78 7.79 9.25 8.26 9.3 8.26h.09z"/><path class="cls-3" d="M56.06 76.51s8.92.23 11-5.3C70 63.46 68.7 45 64.45 42.28c-4-2.51-11.74-2-11.74-2"/><path class="cls-2" d="M56.18 76.59h-.12v-.17c.08 0 8.88.18 10.93-5.24 1.36-3.59 1.9-10 1.38-16.33-.54-6.51-2.06-11.3-4-12.5-3.91-2.47-11.61-2-11.69-2v-.16c.08 0 7.83-.51 11.79 2 2 1.24 3.49 6 4 12.62.53 6.36 0 12.8-1.38 16.41-1.89 5.19-9.82 5.37-10.91 5.37z"/><g class="cls-1"><path class="cls-2" d="M67.08 71.21c-2.1 5.53-11 5.3-11 5.3l-.7-7.87s8.91.24 11-5.3c1.17-3.08 1.67-7.87 1.57-12.69 1.14 6.75.96 15.74-.87 20.56z"/></g><path class="cls-2" d="M56.27 77h-.22a.53.53 0 0 1-.51-.55.51.51 0 0 1 .54-.51c.08 0 8.57.16 10.51-5 1.34-3.54 1.87-9.88 1.34-16.15s-2-11.05-3.76-12.16c-3.78-2.38-11.34-1.89-11.42-1.89a.52.52 0 0 1-.56-.49.53.53 0 0 1 .49-.56c.32 0 8-.52 12.05 2 3.11 2 4 10.42 4.26 13 .54 6.51 0 12.87-1.42 16.6-2.04 5.49-9.85 5.71-11.3 5.71z"/><path class="cls-2" d="M54.6 45.7a.53.53 0 0 1-.34-.94c4.37-3.64 10.65-2.52 10.92-2.47a.53.53 0 0 1-.19 1c-.09 0-6.08-1.07-10.06 2.25a.52.52 0 0 1-.33.16z"/><path class="cls-3" d="M60.23 61.84a32.26 32.26 0 0 0 6-1.6 68.25 68.25 0 0 1-.15 8.41c-.49 2.35-3.62 3.35-4.71 2.56-1.52-1.11-1.14-9.37-1.14-9.37z"/><path class="cls-2" d="M62.36 71.56a1.73 1.73 0 0 1-1-.28c-1.54-1.12-1.19-9.1-1.17-9.44v-.07h.07a31.69 31.69 0 0 0 6-1.6h.1v.12a66 66 0 0 1-.15 8.42 3.71 3.71 0 0 1-2.4 2.62 3.77 3.77 0 0 1-1.45.23zm-2-9.65c0 .79-.29 8.22 1.1 9.24a2.56 2.56 0 0 0 2.26 0 3.57 3.57 0 0 0 2.3-2.5 64 64 0 0 0 .15-8.27 32.53 32.53 0 0 1-5.86 1.53z"/><path class="cls-2" d="M62.36 72a2.25 2.25 0 0 1-1.31-.36c-.49-.36-1.17-1.33-1.35-5.51-.09-2.2 0-4.29 0-4.31v-.43l.43-.07A31.08 31.08 0 0 0 66 59.75l.7-.28v.75a65.91 65.91 0 0 1-.15 8.53 4.14 4.14 0 0 1-2.68 2.94 4.22 4.22 0 0 1-1.51.31zm-1.62-9.71c-.14 3.74.17 7.94.94 8.5a2.15 2.15 0 0 0 1.83-.08 3.07 3.07 0 0 0 2-2.17 54.91 54.91 0 0 0 .18-7.54 32.91 32.91 0 0 1-4.95 1.29z"/><path class="cls-3" d="M72.8 46.11c-6.26 6.59-12.58 6.39-12.58 6.39l-5.82-.2-30.6-1.09s-4.64.7-11.33-6.17C4 36.38 8.77 27.37 17.11 33.37a37.17 37.17 0 0 0 5.49 3.32 14.67 14.67 0 0 0 5 1.64l29.53 1.18a12.63 12.63 0 0 0 2.87-.67 31.72 31.72 0 0 0 8.2-4.41c4.08-2.93 7.28-2.3 8.5.15s.35 7.06-3.9 11.53z"/><path class="cls-2" d="M60.26 52.59L23.8 51.3s-4.75.62-11.39-6.2C7.56 40.12 7.07 35 9.06 32.67c1.33-1.55 4.16-2.2 8.09.63a36.22 36.22 0 0 0 5.49 3.31 15 15 0 0 0 5 1.64l29.52 1.18a13.51 13.51 0 0 0 2.76-.67 31.47 31.47 0 0 0 8.18-4.39c2.24-1.62 4.42-2.27 6.13-1.85a3.73 3.73 0 0 1 2.49 2c1.23 2.46.51 7-3.87 11.62-5.95 6.3-12.04 6.45-12.59 6.45zm-36.47-1.46l30.61 1.09 5.82.2c.07 0 6.36.12 12.52-6.37l.06.06-.06-.06c4.32-4.54 5-9 3.84-11.43a3.54 3.54 0 0 0-2.38-1.94c-1.66-.41-3.79.24-6 1.82a31.48 31.48 0 0 1-8.2 4.41 12.32 12.32 0 0 1-2.8.68l-29.56-1.17a15.09 15.09 0 0 1-5.07-1.66 35.29 35.29 0 0 1-5.51-3.33c-3.22-2.31-6.23-2.56-7.88-.66C7.24 35 7.75 40.08 12.53 45c6.57 6.74 11.22 6.14 11.26 6.13z"/><g class="cls-1"><path class="cls-2" d="M72.8 46.11c-6.26 6.59-12.58 6.39-12.58 6.39l-5.82-.2c2.78-3.12 11-5 18-9.67a9.37 9.37 0 0 0 4.25-8.05c1.27 2.55.4 7.06-3.85 11.53z"/></g><path class="cls-2" d="M24.39 51.9h-.06a.53.53 0 0 1-.46-.59 43.19 43.19 0 0 1 2.22-8.8.53.53 0 0 1 1 .37 42.8 42.8 0 0 0-2.16 8.56.53.53 0 0 1-.54.46z"/><path class="cls-3" d="M60 71v1.57l-.06.26v.06c0 .06-.06.23-.08.34l-.09.33a.25.25 0 0 1 0 .07c0 .08 0 .16-.07.25v.11c0 .09 0 .18-.08.26s-.06.2-.1.3c0 .11-.07.22-.11.33s-.09.23-.14.35-.16.38-.25.56c-.1.2-.19.39-.3.58l-.15.28-.08.13-.08.13c0 .06-.07.12-.11.17l-.09.14a.76.76 0 0 1-.08.11l-.09.14-.11.15-.08.11-.15.19-.17.21-.15.18-.08.09-.13.14a.93.93 0 0 1-.14.14l-.06.07-.17.16-.07.08-.13.12-.14.12-.24.21-.25.2a13.39 13.39 0 0 1-1.48 1l-.22.12h-.09l-.2.12-.19.09h-.08l-.71.43h-.11l-.18.09-.16.08-.2.09h-.07l-.3.13-.34.15-.34.13c-.59.23-1.22.44-1.87.64l-.66.2-.22.06-.33.09-.37.09h-.08l-.32.08-.35.09-.34.07h-.07l-.36.08c-.82.18-1.68.35-2.58.5l-1.07.18c-3.27.53-3.92 3.62-5.21 5.09a2.21 2.21 0 0 1-1 .7c-3.83 1.72-10.6-4-11.21-7.29a4.39 4.39 0 0 1-.09-.68 3.42 3.42 0 0 1 0-.65c-3.18 1-4.22 4.32-7.76 4.27-4.84-.07-10.66-12.17-6.92-14.64 3.26-2.14 5.8 2.57 6.17 2.51.15 0 .4-1 1.1-2 1-1.45 2.84-3.06 6.56-2.52l20.42.06h14.87z"/><path class="cls-2" d="M34.91 90.46a8 8 0 0 1-3.57-1c-3-1.57-5.76-4.55-6.15-6.64a6.26 6.26 0 0 1-.08-.7 4.68 4.68 0 0 1 0-.53A9 9 0 0 0 22 83.63c-1.25 1.11-2.44 2.16-4.42 2.16h-.08c-3 0-6.5-4.79-7.74-9-.81-2.8-.53-4.91.78-5.77 2.59-1.7 4.7.79 5.72 2a4.55 4.55 0 0 0 .47.51 2.48 2.48 0 0 0 .23-.45 10 10 0 0 1 .82-1.54c1.43-2.13 3.67-3 6.64-2.56l35.31-.1.33 2.12H60h.08v1.43a.36.36 0 0 1 0 .1v.26a.14.14 0 0 1 0 .07l-.06.3-.09.33-.06.21v.12c0 .08 0 .17-.09.26a2.41 2.41 0 0 1-.08.25l-.05.06c0 .1-.07.2-.11.29s-.09.24-.14.36-.16.38-.25.57c-.09.19-.19.38-.29.58s-.11.19-.16.28l-.08.13a1 1 0 0 1-.08.14l-.11.18-.09.13a.83.83 0 0 1-.08.12l-.09.12-.07.11-.11.15-.15.19-.17.21V78l-.15.18-.06.06a.86.86 0 0 1-.13.14l-.14.15-.59.47-.17.16-.08.08-.13.12-.14.12-.24.21-.23.2a14.42 14.42 0 0 1-1.51 1l-.22.12-.09.06-.15.09-.19.1h-.08l-.24.12h-.27l-.17.08-.15.07h-.07l-.3.13-.34.14-.31.13c-.58.22-1.19.43-1.88.64l-.66.19h-.18l-.33.09-.37.09h-.41l-.34.09-.34.07h-.43c-.8.17-1.67.34-2.59.5-.35.07-.7.12-1.07.18-2.32.38-3.3 2.06-4.16 3.54a9.76 9.76 0 0 1-1 1.52 2.19 2.19 0 0 1-1.06.73 3.85 3.85 0 0 1-1.79.89zm-9.6-9.13v.12a4.33 4.33 0 0 0 0 .63 6.07 6.07 0 0 0 .09.68c.37 2 3.14 5 6.05 6.53 2 1 3.76 1.27 5.05.69a2 2 0 0 0 1-.68 10.13 10.13 0 0 0 1-1.49c.88-1.52 1.87-3.23 4.28-3.62l.99-.19c.92-.16 1.79-.33 2.58-.5h.44l.33-.07.35-.09h.4l.37-.09.32-.09h.19l.65-.2a19.35 19.35 0 0 0 1.87-.64l.3-.12.43-.4.3-.13.12-.06.15-.06.17-.08h.07l.11-.05H53l.24-.12h.08l.19-.1.15-.08h.14l.21-.12a14.33 14.33 0 0 0 1.48-1l.25-.2.23-.21.14-.12.12-.12a.3.3 0 0 0 .08-.08l.17-.16.06-.06.14-.15.13-.14a.12.12 0 0 0 .05 0l.16-.18.17-.2.15-.2.12-.15a.36.36 0 0 1 .07-.1l.08-.12.07-.12.09-.13c0-.06.07-.12.11-.17l.08-.13.08-.13.15-.28c.1-.19.2-.37.28-.56.09-.19.17-.37.24-.55s.1-.24.14-.35.07-.19.1-.28v-.05c0-.1.06-.2.1-.3 0-.09 0-.18.08-.26v-.16a1.17 1.17 0 0 0 .05-.2.42.42 0 0 1 0-.06c0-.11.06-.21.08-.32v-.05l.06-.29a.64.64 0 0 1 0-.07h.08-.08l.06-.26v-.51a1.49 1.49 0 0 0 0-.18v-.29a.22.22 0 0 0 0-.08 2.17 2.17 0 0 0 0-.25 1.37 1.37 0 0 0 0-.19l-.36-2-35.18.11c-2.92-.43-5.1.41-6.49 2.48a9.35 9.35 0 0 0-.81 1.52c-.17.37-.24.53-.35.54s-.25-.12-.63-.56c-1-1.17-3-3.59-5.5-2-.73.32-.98 2.32-.19 5.05 1.22 4.17 4.63 8.85 7.58 8.9 2 0 3.15-1 4.39-2.13a9.06 9.06 0 0 1 3.34-2.14z"/><path class="cls-2" d="M42.52 73.1a22.87 22.87 0 0 0-2.71-.23 13.57 13.57 0 0 0-2.64.19 7.62 7.62 0 0 0-2.43.84 5.43 5.43 0 0 0-1 .75c-.16.13-.3.3-.45.45l-.41.5v.05l.05-.06a8.84 8.84 0 0 0-1.11 2.08 10.34 10.34 0 0 0-.6 2.31l-.09.62-.6-.19-.73-.2c-.25-.06-.5-.1-.75-.14a6.25 6.25 0 0 0-1.49 0 2.94 2.94 0 0 0-.67.13 2.2 2.2 0 0 0-.55.29 1.55 1.55 0 0 0-.36.45 2.79 2.79 0 0 0-.17.6.53.53 0 0 1-1.05-.15 3.33 3.33 0 0 1 .28-.95 2.46 2.46 0 0 1 .64-.8 3.21 3.21 0 0 1 .87-.47 4.19 4.19 0 0 1 .91-.18 7.19 7.19 0 0 1 1.74.06c.28 0 .56.09.83.15s.54.13.83.23l-.69.42a12.4 12.4 0 0 1 .66-2.53A9.71 9.71 0 0 1 32 75l.47-.58a6.63 6.63 0 0 1 .53-.53 6.17 6.17 0 0 1 1.2-.9A7.78 7.78 0 0 1 37 72a9.47 9.47 0 0 1 2.91 0 9.7 9.7 0 0 1 1.4.3 8.08 8.08 0 0 1 1.34.52.18.18 0 0 1 .08.24.19.19 0 0 1-.18.09z"/><path class="cls-2" d="M34.92 90.9c-3.3 0-7.37-3.1-9.2-5.86a6 6 0 0 1-1-2.17 5.47 5.47 0 0 1-.09-.66A9.82 9.82 0 0 0 22.25 84c-1.28 1.13-2.6 2.31-4.81 2.28S13 84.24 11.07 81c-2.29-3.9-3.31-8.71-.83-10.34 2.93-1.92 5.3.88 6.31 2.07.63-1.41 2.44-5 7.83-4.21l35.65-.11.46 2.54v1.16a1.7 1.7 0 0 0 0 .22v.31a2.82 2.82 0 0 1-.07.31.23.23 0 0 1 0 .07l-.06.27v.07l-.09.33v.06l-.06.21a.93.93 0 0 1 0 .13 2 2 0 0 1-.08.26l.13.13-.27.29c0 .07 0 .14-.08.22l-.15.37c-.07.19-.16.39-.25.59v.08c-.08.17-.17.35-.27.53l-.17.3-.15.25-.11.17-.09.14-.08.12-.09.13L58 78l-.11.15-.17.21-.18.22-.16.18-.06.07-.13.15-.15.15a.46.46 0 0 1-.07.07c-.06.06-.11.12-.17.17l-.09.09a.69.69 0 0 1-.13.11l-.15.14-.24.22-.24.19a13.76 13.76 0 0 1-1.55 1.07l-.23.13h-.09l-.16.09-.19.1h-.09l-.23.12h-.21L53 82l-.19.09-.14.07h-.14l-.3.13-.35.15-.31.12c-.59.23-1.21.45-1.91.66l-.67.19-.2.06-.33.09-.37.1h-.2l-.21.06-.36.08-.33.08h-.43c-.81.17-1.69.34-2.61.5l-1.07.18c-2.12.34-3 1.86-3.85 3.32a9.16 9.16 0 0 1-1.13 1.82 2.57 2.57 0 0 1-1.22.85 4.36 4.36 0 0 1-1.76.35zm-9.09-10.19l-.1.8a4 4 0 0 0 .06 1.17 5.34 5.34 0 0 0 .81 1.78c1.95 2.94 6.87 6.38 9.67 5.12h.08a1.66 1.66 0 0 0 .76-.54 9.09 9.09 0 0 0 .89-1.46c.89-1.52 2-3.41 4.6-3.83l1-.18c.92-.16 1.78-.32 2.57-.49h.42l.41-.18.35-.08h.41l.35-.09.32-.09.19-.05.65-.19c.66-.21 1.27-.41 1.83-.63l.29-.12.34-.14.29-.13.12-.05.14-.07.16-.07h.25l.22-.12h.05l.17-.09.15-.08.14-.08.2-.12a12.41 12.41 0 0 0 1.43-1l.22-.18.23-.2.12-.11.11-.1h.06l.16-.16.12-.13.12-.13.15-.17.16-.2.13-.17.11-.15.06-.08.09-.13a.86.86 0 0 0 .07-.1l.08-.12.1-.15.13-.23.16-.27c.08-.16.16-.3.23-.45v-.09l.09-.09.2-.47c0-.12.09-.23.13-.34s.07-.18.1-.27l.09-.28v-.06a1.42 1.42 0 0 0 .07-.22v-.09c0-.06 0-.13.05-.19v-.08a2.29 2.29 0 0 0 .07-.28v-.07c0-.1 0-.19.07-.29 0-.1 0-.2.06-.29s0-.05 0-.08v-.93a1.85 1.85 0 0 0 0-.23.59.59 0 0 1 0-.14l-.28-1.54-34.85.1c-4.83-.71-6.22 2.41-6.82 3.74-.2.47-.33.75-.68.8s-.59-.19-1-.72c-1.44-1.7-3-3.11-4.92-1.87S10 77.07 12 80.44c1.7 2.9 3.79 4.72 5.47 4.74s2.87-.92 4.1-2a9 9 0 0 1 3.51-2.23zm32.64-3.39zm-.85-.62z"/><g class="cls-1"><path class="cls-2" d="M60 71v1.57l-.06.26-18.66-.53-22.63-.68a7.9 7.9 0 0 1-.85-.07c1-1.45 2.84-3.06 6.56-2.52L44.74 69h14.87z"/></g><path class="cls-2" d="M60.3 53h-.1l-36.37-1.26c-.59.07-5.25.34-11.74-6.33C7 40.19 6.55 34.9 8.72 32.38c1.47-1.7 4.52-2.45 8.7.56 6.39 4.6 10.21 4.86 10.25 4.87L57.16 39c.35 0 4.52-.54 10.69-5 4.16-3 7.19-2.28 8.64-.61 2.17 2.49 1.73 7.78-3.31 13.08C67.17 52.8 61.16 53 60.3 53zm-.06-1c.11 0 6.2.06 12.18-6.23C77 41 77.51 36.16 75.7 34.08c-1.47-1.67-4.24-1.37-7.23.78C61.78 39.67 57.39 40 57.21 40h-.06l-29.53-1.14c-.17 0-4.13-.25-10.82-5.06-3-2.17-5.8-2.45-7.28-.73-1.81 2.1-1.27 6.93 3.33 11.61 6.37 6.54 10.84 6 10.88 6h.09z"/><path class="cls-3" d="M58.57 40c-.37 1.85-.81 5.56-.65 12.49a1.35 1.35 0 0 1-1.36 1.38H54a1.35 1.35 0 0 1-1.35-1.3c-.13-2.65-.21-8.82 1.3-13.28a1.34 1.34 0 0 1 1.28-.91h2A1.35 1.35 0 0 1 58.57 40z"/><path class="cls-2" d="M56.56 53.9H54a1.44 1.44 0 0 1-1.44-1.37c-.11-2.5-.21-8.8 1.31-13.32a1.43 1.43 0 0 1 1.36-1h2a1.46 1.46 0 0 1 1.12.53 1.48 1.48 0 0 1 .3 1.2c-.39 1.9-.81 5.61-.66 12.46a1.44 1.44 0 0 1-.41 1 1.42 1.42 0 0 1-1.02.5zm-1.34-15.49a1.25 1.25 0 0 0-1.2.86C52.5 43.75 52.6 50 52.72 52.52A1.28 1.28 0 0 0 54 53.74h2.57a1.28 1.28 0 0 0 1.28-1.3 60.19 60.19 0 0 1 .65-12.51 1.27 1.27 0 0 0-1.25-1.52z"/><g class="cls-1"><path class="cls-2" d="M58.57 40c-.37 1.85-.81 5.56-.65 12.49a1.35 1.35 0 0 1-1.36 1.38H54a1.37 1.37 0 0 1-1.36-1.3 51.36 51.36 0 0 1 .4-9.33 45.78 45.78 0 0 0 .38 5.52 1.8 1.8 0 0 0 1.85 1.58A1.82 1.82 0 0 0 57 48.5a22.9 22.9 0 0 1 1.58-8.9 1.06 1.06 0 0 1-.01.4z"/></g><path class="cls-2" d="M56.56 54.35H54a1.88 1.88 0 0 1-1.88-1.8c-.12-2.55-.23-8.89 1.32-13.48a1.87 1.87 0 0 1 1.78-1.27h2a1.88 1.88 0 0 1 1.85 2.25c-.38 1.89-.8 5.56-.64 12.37a1.9 1.9 0 0 1-1.89 1.93zm-1.34-15.5a.83.83 0 0 0-.78.56C53 43.82 53.05 50 53.16 52.5a.83.83 0 0 0 .83.79h2.57a.84.84 0 0 0 .6-.25.81.81 0 0 0 .23-.59c-.15-6.91.28-10.67.67-12.61a.83.83 0 0 0-.17-.68.86.86 0 0 0-.65-.31zM58.57 40z"/><g class="cls-1"><path class="cls-2" d="M60 38.84a17.55 17.55 0 0 1-4.46 4c-3.44 2.15-9.26 2.9-14.35 3-10.6.11-15.95-4.87-16-4.95a17.77 17.77 0 0 1-2.47-2.73v-1.42a14.67 14.67 0 0 0 5 1.64l30 .15s.45.91 2.28.31z"/></g><path class="cls-3" d="M22.63 35.47a17.77 17.77 0 0 0 2.47 2.73c.1.08 5.45 5.06 16 4.95 5.09 0 10.91-.81 14.35-3A18.17 18.17 0 0 0 63.79 27c.71-5.5 1.42-12.66-3.94-19.06C51.51-2 33.42-1.37 25.05 6.38a13.9 13.9 0 0 0-2.95 3.71"/><path class="cls-2" d="M40.8 43.23c-10 0-15.18-4.45-15.74-5a17.53 17.53 0 0 1-2.49-2.75l.13-.1a17.63 17.63 0 0 0 2.46 2.72c.58.52 5.86 5 16 4.93 3.64 0 10.34-.47 14.31-3A18 18 0 0 0 63.71 27c.64-4.94 1.6-12.41-3.93-19-3.61-4.3-9.29-6.91-16-7.33C36.59.22 29.44 2.43 25.1 6.45a13.76 13.76 0 0 0-2.93 3.68l-.17-.08a14 14 0 0 1 3-3.73C29.36 2.28 36.56.05 43.79.5c6.75.43 12.48 3.06 16.12 7.4 5.57 6.64 4.6 14.15 4 19.12a18.22 18.22 0 0 1-8.33 13.24c-4 2.5-10.74 2.93-14.4 3z"/><g class="cls-1"><path class="cls-2" d="M63.8 27a18.24 18.24 0 0 1-8.3 13.18c-3.44 2.15-9.26 2.91-14.35 3-10.6.11-16-4.87-16-4.95a17.77 17.77 0 0 1-2.47-2.73l-.3-14.32a17.81 17.81 0 0 0 2.38 2.61c.09.08 5.44 5.06 16 4.95 5.09-.06 10.91-.81 14.35-3a18.15 18.15 0 0 0 8.09-11.9c1.59 4.65 1.09 9.32.6 13.16z"/></g><path class="cls-2" d="M40.8 43.68c-10.13 0-15.46-4.56-16-5.08a17.91 17.91 0 0 1-2.55-2.82.53.53 0 1 1 .85-.62 17.21 17.21 0 0 0 2.4 2.65c.56.51 5.73 4.91 15.69 4.81 6.11-.06 11.24-1.11 14.07-2.88A17.56 17.56 0 0 0 63.27 27c.63-4.87 1.57-12.22-3.83-18.66-3.53-4.21-9.1-6.76-15.69-7.18-7.07-.49-14.1 1.68-18.35 5.61a13.39 13.39 0 0 0-2.83 3.57.54.54 0 0 1-.72.22.53.53 0 0 1-.21-.72A14.36 14.36 0 0 1 24.69 6C29.14 1.87 36.47-.4 43.82.06c6.87.43 12.71 3.11 16.43 7.55C66 14.4 65 22 64.32 27.08a18.63 18.63 0 0 1-8.54 13.56c-4.09 2.55-10.92 3-14.62 3z"/><path class="cls-2" d="M55 27.36c-.59 4.22-2.42 8.18-6.54 10.29-3 1.56-8.06 2.25-13 2.14-3.18-.07-10.66-1.8-12.81-4.32a18.47 18.47 0 0 1-3.49-9.4 28.48 28.48 0 0 1 3-16C27.93 5 36 5.47 36 5.47s9.33-.1 14.9 6.47A19.13 19.13 0 0 1 55 27.36z"/><g class="cls-4"><path class="cls-3" d="M43.41 9.76s-9.65-.85-15.74 3.85a9 9 0 0 0-2.88 3.81 18.78 18.78 0 0 0-1.24 4.79 17.47 17.47 0 0 0-.05 6 10.35 10.35 0 0 1-2.5-8.35 35.53 35.53 0 0 1 1.11-4.33A12.51 12.51 0 0 1 29.65 8c7.69-2.55 14.14 1.39 13.76 1.76z"/></g><g class="cls-4"><ellipse class="cls-3" cx="49.71" cy="20.15" rx="2.85" ry="3.32" transform="rotate(-7.25 49.673 20.183)"/></g><g class="cls-4"><ellipse class="cls-3" cx="50.47" cy="26.14" rx="1.18" ry="1.37" transform="rotate(-12.09 50.465 26.16)"/></g><path class="cls-2" d="M36.44 40.33h-1c-3.36-.08-10.91-1.84-13.19-4.5a19 19 0 0 1-3.58-9.68 29.18 29.18 0 0 1 3-16.26v-.08l.07-.07C27.6 4.62 35.49 4.92 36 5s9.69 0 15.28 6.65a19.7 19.7 0 0 1 4.18 15.83c-.73 5.14-3 8.74-6.82 10.68-2.7 1.36-7.22 2.17-12.2 2.17zM23 35.13c2 2.31 9.23 4.06 12.41 4.13 5.21.12 10-.66 12.73-2.08 3.48-1.79 5.58-5.12 6.26-9.9a18.69 18.69 0 0 0-3.93-15C45.17 6 36.11 6 36 6c-.08 0-7.88-.36-13.47 4.43A28.13 28.13 0 0 0 19.67 26 18 18 0 0 0 23 35.13z"/><path class="cls-3" d="M62.26 29.64l-3.59-.07c-2.85-.06-5.1-3.15-5-6.89S56.11 15.94 59 16l3.85.08z"/><path class="cls-2" d="M62.34 29.73h-.08l-3.59-.07a4.71 4.71 0 0 1-3.67-2.1 8 8 0 0 1-1.42-4.89 8 8 0 0 1 1.63-4.81A4.68 4.68 0 0 1 59 15.92l3.9.08zm-3.46-13.65A4.57 4.57 0 0 0 55.33 18a7.89 7.89 0 0 0-1.6 4.72 7.85 7.85 0 0 0 1.4 4.78 4.53 4.53 0 0 0 3.54 2l3.52.07.54-13.4-3.73-.09z"/><g class="cls-1"><path class="cls-2" d="M62.27 29.64l-3.6-.07c-2.85-.06-5.1-3.15-5-6.9a8.65 8.65 0 0 1 .17-1.67c.22 1.8.89 2.45 1.61 2.46a2.05 2.05 0 0 0 1.8-1l.32 3.76z"/></g><path class="cls-2" d="M62.27 30.17l-3.6-.07a5.12 5.12 0 0 1-4-2.28 8.54 8.54 0 0 1-1.51-5.16 8.5 8.5 0 0 1 1.73-5.08 5.17 5.17 0 0 1 4-2.11H59l3.84.08a.53.53 0 0 1 0 1.06L59 16.53a4.08 4.08 0 0 0-3.27 1.71 7.38 7.38 0 0 0-1.5 4.45 7.41 7.41 0 0 0 1.31 4.51 4.12 4.12 0 0 0 3.19 1.85l3.59.07a.51.51 0 0 1 .52.53.52.52 0 0 1-.57.52z"/><ellipse class="cls-3" cx="62.41" cy="22.86" rx="6.79" ry="5.17" transform="rotate(-88.77 62.41 22.865)"/><path class="cls-2" d="M62.35 29.73h-.08a4.67 4.67 0 0 1-3.68-2.1 8 8 0 0 1-1.43-4.88 8 8 0 0 1 1.64-4.82 4.44 4.44 0 0 1 7.44.16A8 8 0 0 1 67.67 23c-.08 3.73-2.46 6.73-5.32 6.73zm.12-13.57A4.52 4.52 0 0 0 58.93 18a7.79 7.79 0 0 0-1.6 4.71 7.85 7.85 0 0 0 1.39 4.79 4.56 4.56 0 0 0 3.55 2c2.81.07 5.15-2.9 5.23-6.6a7.84 7.84 0 0 0-1.39-4.78 4.56 4.56 0 0 0-3.55-2z"/><ellipse class="cls-3" cx="62.41" cy="22.86" rx="6.79" ry="5.17" transform="rotate(-88.77 62.41 22.865)"/><path class="cls-2" d="M62.35 29.73h-.08a4.67 4.67 0 0 1-3.68-2.1 8 8 0 0 1-1.43-4.88 8 8 0 0 1 1.64-4.82 4.44 4.44 0 0 1 7.44.16A8 8 0 0 1 67.67 23c-.08 3.73-2.46 6.73-5.32 6.73zm.12-13.57A4.52 4.52 0 0 0 58.93 18a7.79 7.79 0 0 0-1.6 4.71 7.85 7.85 0 0 0 1.39 4.79 4.56 4.56 0 0 0 3.55 2c2.81.07 5.15-2.9 5.23-6.6a7.84 7.84 0 0 0-1.39-4.78 4.56 4.56 0 0 0-3.55-2z"/><g opacity=".3"><path class="cls-3" d="M67.55 24.39a5.17 5.17 0 1 1-10.33-.23 5.42 5.42 0 0 1 .52-2.24 5.08 5.08 0 0 0 9.39.2 5.5 5.5 0 0 1 .42 2.27z"/><path class="cls-2" d="M62.38 29.75h-.11a5.12 5.12 0 0 1-3.68-1.68 5.59 5.59 0 0 1-1.46-3.91 5.68 5.68 0 0 1 .53-2.27l.08-.17.07.17a5 5 0 0 0 9.25.2l.07-.17.08.17a5.81 5.81 0 0 1 .43 2.3 5.39 5.39 0 0 1-5.26 5.36zm-4.64-7.62a5.21 5.21 0 0 0-.44 2A5.44 5.44 0 0 0 58.71 28a5 5 0 0 0 3.56 1.63 5.22 5.22 0 0 0 5.2-5.21 5.27 5.27 0 0 0-.35-2.05 5.15 5.15 0 0 1-9.38-.2z"/></g><ellipse class="cls-3" cx="62.41" cy="22.86" rx="6.79" ry="5.17" transform="rotate(-88.77 62.41 22.865)"/><path class="cls-2" d="M62.35 29.73h-.08a4.67 4.67 0 0 1-3.68-2.1 8 8 0 0 1-1.43-4.88 8 8 0 0 1 1.64-4.82 4.44 4.44 0 0 1 7.44.16A8 8 0 0 1 67.67 23c-.08 3.73-2.46 6.73-5.32 6.73zm.12-13.57A4.52 4.52 0 0 0 58.93 18a7.79 7.79 0 0 0-1.6 4.71 7.85 7.85 0 0 0 1.39 4.79 4.56 4.56 0 0 0 3.55 2c2.81.07 5.15-2.9 5.23-6.6a7.84 7.84 0 0 0-1.39-4.78 4.56 4.56 0 0 0-3.55-2z"/><path class="cls-2" d="M62.35 30.18h-.09a5.15 5.15 0 0 1-4-2.28 8.47 8.47 0 0 1-1.51-5.16 8.41 8.41 0 0 1 1.73-5.08 5.13 5.13 0 0 1 4-2.11h.1a5.12 5.12 0 0 1 4 2.28A8.47 8.47 0 0 1 68.11 23c-.11 4-2.66 7.18-5.76 7.18zm.12-13.58a4.13 4.13 0 0 0-3.19 1.71 7.43 7.43 0 0 0-1.51 4.45 7.46 7.46 0 0 0 1.31 4.51 4.08 4.08 0 0 0 3.2 1.85h.08c2.52 0 4.62-2.74 4.7-6.16a7.48 7.48 0 0 0-1.31-4.51 4.14 4.14 0 0 0-3.2-1.85z"/><g class="cls-1"><path class="cls-2" d="M67.55 24.39a5.17 5.17 0 1 1-10.33-.23 5.42 5.42 0 0 1 .52-2.24 5.08 5.08 0 0 0 9.39.2 5.5 5.5 0 0 1 .42 2.27z"/></g><path class="cls-3" d="M62.47 69.94l-22.64-.68-22.63-.67a8.71 8.71 0 0 1-8.42-8.94 8.69 8.69 0 0 1 8.93-8.41L63 52.59a8.69 8.69 0 0 1 8.41 8.93 8.71 8.71 0 0 1-8.94 8.42z"/><g class="cls-1"><path class="cls-2" d="M71.4 61.52a8.7 8.7 0 0 1-8.67 8.42h-.26l-22.64-.68-22.63-.67a8.71 8.71 0 0 1-8.42-8.94 8.34 8.34 0 0 1 .16-1.42 8.71 8.71 0 0 0 8.26 7l22.63.67 22.64.68h.26a8.71 8.71 0 0 0 8.51-7 8.34 8.34 0 0 1 .16 1.94z"/></g><path class="cls-2" d="M62.73 70.47h-.28l-45.27-1.36a9.22 9.22 0 0 1-8.93-9.47 9.24 9.24 0 0 1 9.48-8.93L63 52.06a9.21 9.21 0 0 1-.27 18.41zM17.45 51.76a8.15 8.15 0 0 0-.24 16.3l45.28 1.35a8.15 8.15 0 1 0 .51-16.3l-45.3-1.35z"/><path d="M35.76 37.23C33.83 38.4 31.17 35 33 32.52c3.66-5.08 12.63 3.91 5.47 8.5-9.47 6.06-12.4-8.37-12.4-8.37L19 28c6.44-6 11.36-1.05 11.92 3.7 1.12 9.52 4.56 5.7 4.56 5.7" fill="#3aaaff"/><path d="M34.1 42.59a5.39 5.39 0 0 1-2.1-.42c-4.26-1.8-5.88-8.89-6-9.47l-7.07-4.65a.08.08 0 0 1 0-.07.11.11 0 0 1 0-.07c3.35-3.12 6-3.06 7.65-2.46 2.66 1 4.13 3.83 4.42 6.22.55 4.73 1.68 6 2.53 6.32a1.81 1.81 0 0 0 1.63-.45 2.25 2.25 0 0 1-1.92-.83 3.35 3.35 0 0 1-.31-4.25A3.48 3.48 0 0 1 36.68 31a6.28 6.28 0 0 1 4.48 4.84c.35 2-.59 3.91-2.66 5.23a8.25 8.25 0 0 1-4.4 1.52zM19.11 28l7 4.6v.06c0 .06 1.58 7.54 5.91 9.38 1.87.79 4 .43 6.33-1.07 2-1.28 2.92-3.08 2.58-5a6.15 6.15 0 0 0-4.34-4.69A3.3 3.3 0 0 0 33 32.65a3.17 3.17 0 0 0 .3 4 2 2 0 0 0 2 .72h.05a1.66 1.66 0 0 0 .27-.13.09.09 0 1 1 .09.15 1.77 1.77 0 0 1-.31.15 2.16 2.16 0 0 1-2 .7c-1.31-.42-2.2-2.59-2.66-6.47-.28-2.34-1.71-5.12-4.3-6.07-1.52-.7-4.08-.7-7.33 2.3z" fill="#102770"/><g class="cls-1"><path class="cls-2" d="M40.93 38.06a5.66 5.66 0 0 1-2.48 3c-9.45 6.02-12.38-8.41-12.38-8.41L19 28a14 14 0 0 1 1.7-1.37l6.46 4.25s2.93 14.44 12.38 8.37a7.09 7.09 0 0 0 1.39-1.19z"/></g><g class="cls-8"><path class="cls-3" d="M35.61 37.38c.24.77-4 4.87-5.06-4.49-.54-4.52-5-9.22-11-4.52L19 28c6.44-6 11.36-1.05 11.92 3.7.38 3.28 1.05 5 1.75 5.79s2.05.2 2.94-.11z"/></g><g class="cls-1"><path class="cls-3" d="M35.11 38.58l.31-.14a1.77 1.77 0 0 1-.31.15z"/><path class="cls-2" d="M34.78 38.79l.3-.28.31-.15.08.15a2.41 2.41 0 0 1-.33.15z"/></g><g class="cls-1"><path class="cls-3" d="M35.45 37.38l.31-.15a1.1 1.1 0 0 1-.31.15z"/><path class="cls-2" d="M35.15 37.58l.27-.28.31-.14.08.15a2.07 2.07 0 0 1-.34.15z"/></g><g class="cls-1"><path class="cls-3" d="M35.11 38.58l.31-.14a1.77 1.77 0 0 1-.31.15z"/><path class="cls-2" d="M34.78 38.79l.3-.28.31-.15.08.15a2.41 2.41 0 0 1-.33.15z"/></g><g class="cls-1"><path class="cls-3" d="M35.76 37.23a1.1 1.1 0 0 1-.31.15z"/><path class="cls-2" d="M35.15 37.58l.27-.28.31-.14.08.15a2.07 2.07 0 0 1-.34.15z"/></g><g class="cls-8"><path class="cls-3" d="M40.42 39.12c1-4.42-5.1-9.17-8-5.25a3.24 3.24 0 0 1 .58-1.35c3.18-4.44 10.44 1.87 7.42 6.6z"/></g><path class="cls-2" d="M34.1 43a5.9 5.9 0 0 1-2.27-.46c-4.25-1.8-5.93-8.31-6.23-9.61l-7.48-4.92.49-.46c3.52-3.24 6.39-3.15 8.1-2.55 2.83 1 4.4 4.05 4.7 6.58a22.26 22.26 0 0 0 .44 2.61 3.6 3.6 0 0 1 .7-2 3.88 3.88 0 0 1 4.22-1.61 6.72 6.72 0 0 1 4.82 5.18c.22 1.3.15 3.75-2.86 5.68A8.74 8.74 0 0 1 34.1 43zM19.83 27.91l6.72 4.42v.21c0 .08 1.53 7.32 5.66 9.06 1.72.73 3.71.39 5.91-1 2.37-1.52 2.61-3.34 2.39-4.6a5.69 5.69 0 0 0-4-4.34 2.83 2.83 0 0 0-3.13 1.19 2.74 2.74 0 0 0 .26 3.48 1.65 1.65 0 0 0 1.57.6h.08a.7.7 0 0 0 .17-.09.53.53 0 1 1 .55.91l-.3.15a2.54 2.54 0 0 1-2.42.73c-1.5-.48-2.47-2.71-3-6.82-.26-2.21-1.6-4.83-4-5.72-1.91-.78-4.16-.09-6.46 1.82z"/><path d="M36 44.51c-2 1.23-4.82-2.33-2.92-5 3.84-5.33 13.27 4.11 5.75 8.94-9.94 6.37-13-8.8-13-8.8l-5-12.33c8.77 0 9.21 6.86 9.64 10.78.92 8.23 5.22 6.52 5.22 6.52" fill="#f0f"/><g class="cls-1"><path class="cls-2" d="M41.14 46.09a6.33 6.33 0 0 1-2.3 2.4c-9.94 6.37-13-8.8-13-8.8l-5-12.33a14.08 14.08 0 0 1 1.89.12L27 38.13s3.07 15.17 13 8.8a8.21 8.21 0 0 0 1.14-.84z"/></g><g class="cls-8"><path class="cls-3" d="M35.73 44.21c-.72.21-5 3-5.87-4.34-.42-3.78-.39-10.25-8.3-10.71l-.9-2.2c8.78 0 9.22 6.87 9.65 10.79.34 3 1.12 4.68 2 5.6 1.34.96 1.98 1.24 3.42.86z"/></g><path class="cls-2" transform="rotate(-17.04 35.635 46.869)" d="M35.62 46.78h.04v.16h-.04z"/><path class="cls-10" d="M36 46.69a1.46 1.46 0 0 1-.36.16z"/><path class="cls-2" d="M35.68 46.93v-.15l.32-.16.08.15a1.84 1.84 0 0 1-.4.16z"/><path class="cls-10" d="M36.35 43.77l.33-.15a2 2 0 0 1-.48.2z"/><path class="cls-2" d="M36.22 43.9v-.16l.14-.05.32-.15.08.15a2.21 2.21 0 0 1-.54.21z"/><path class="cls-10" d="M36 46.69a1.46 1.46 0 0 1-.36.16z"/><path class="cls-2" d="M35.68 46.93v-.15l.32-.16.08.15a1.84 1.84 0 0 1-.4.16z"/><path class="cls-2" transform="rotate(-17.04 35.635 46.869)" d="M35.62 46.78h.04v.16h-.04z"/><g class="cls-8"><path class="cls-3" d="M41.5 45.19c0-4.3-5.78-8.27-8.58-4.39a3.23 3.23 0 0 0-.46.88 3.27 3.27 0 0 1 .63-2.13c3.07-4.26 9.72.92 8.41 5.64z"/></g><path class="cls-2" d="M34.26 50.58a6 6 0 0 1-2.37-.48c-4.71-2-6.41-9.51-6.57-10.26L20 26.83h.79c3.87 0 6.66 1.33 8.26 4A16.43 16.43 0 0 1 31 37.68l.05.4A13.2 13.2 0 0 0 32 42a3.77 3.77 0 0 1 .7-2.78 4 4 0 0 1 4.41-1.68 7 7 0 0 1 5 5.43c.24 1.35.16 3.92-3 5.94a9.06 9.06 0 0 1-4.85 1.67zM21.62 27.9l4.72 11.64v.05c0 .07 1.61 7.7 6 9.54 1.82.77 3.92.4 6.24-1.09 2.5-1.6 2.75-3.53 2.52-4.87a6 6 0 0 0-4.24-4.58 3 3 0 0 0-3.31 1.27 2.89 2.89 0 0 0 .28 3.68 1.72 1.72 0 0 0 1.63.65h.12a.82.82 0 0 0 .19-.09.53.53 0 0 1 .73.18.52.52 0 0 1-.18.72 2.1 2.1 0 0 1-.62.26 3.51 3.51 0 0 1-2.7-.43c-1.61-1-2.62-3.2-3-6.63l-.05-.41c-.46-3.79-1.08-9.5-8.33-9.89z"/><path d="M35.87 50c-2.16 1-4.69-1-3.32-3.95 2.85-6.16 13.31 3.48 5.8 8.06-8.72 5.3-12.15-7.93-12.15-7.93l-.56-12.06c6.26 2.11 4.11 6.49 4.16 10.42.08 6.68 5.27 5.69 5.27 5.69" fill="#fef26b"/><g class="cls-1"><path class="cls-12" d="M35.87 50a2.6 2.6 0 0 1-.8.23z"/><path class="cls-2" d="M35.08 50.28v-.16l.8-.23.06.16a2.78 2.78 0 0 1-.86.23z"/></g><g class="cls-1"><path class="cls-2" d="M41 50.23a4.89 4.89 0 0 1-2.65 3.85c-8.72 5.3-12.15-7.93-12.15-7.93l-.56-12.06c.28.09.53.19.78.29l.45 9.77S30.3 57.38 39 52.08a6.15 6.15 0 0 0 2-1.85z"/></g><g class="cls-1"><path class="cls-12" d="M35.07 50.2l.8-.23a2.6 2.6 0 0 1-.8.23z"/><path class="cls-2" d="M35.08 50.28v-.16l.8-.23.06.16a2.78 2.78 0 0 1-.86.23z"/></g><g class="cls-8"><path class="cls-3" d="M30.39 41.24c-.24-1.86-1.23-3.49-4.3-4.56L26 34.32c4.39 1.5 4.62 4.12 4.39 6.92z"/></g><g class="cls-1"><path class="cls-3" d="M35.87 50s-5.28 3.84-6.07-3.13a6.91 6.91 0 0 1 .05-1.36c.24 2.43 1.25 3.64 2.32 4.23 1.55.73 2.14.43 3.7.26z"/></g><g class="cls-8"><path class="cls-3" d="M40.89 51c-.32-4.19-6.39-8-8.46-3.56a4.59 4.59 0 0 0-.24.64 3.52 3.52 0 0 1 .36-2c2.29-5.01 9.5.25 8.34 4.92z"/></g><path class="cls-2" d="M34.41 55.86a6 6 0 0 1-2.24-.44c-4.54-1.84-6.41-8.84-6.48-9.14v-.05l-.59-12.84.73.25c5.35 1.81 5 5.35 4.67 8.48a20.22 20.22 0 0 0-.15 2.44c0 2 .54 3.49 1.53 4.35a3.82 3.82 0 0 1 .21-3.06 3.57 3.57 0 0 1 3.78-2.28 7 7 0 0 1 5.56 5.26c.3 1.33.33 3.85-2.79 5.75a8.21 8.21 0 0 1-4.23 1.28zm-7.69-9.79c.18.62 2 6.81 5.85 8.37a6 6 0 0 0 5.5-.82c2.43-1.47 2.6-3.32 2.31-4.61a6.08 6.08 0 0 0-4.64-4.44A2.54 2.54 0 0 0 33 46.24a2.42 2.42 0 0 0 .24 2.86 2 2 0 0 0 1.71.58 2.23 2.23 0 0 0 .64-.19.53.53 0 0 1 .7.27.52.52 0 0 1-.27.69 3.21 3.21 0 0 1-1 .28 5.1 5.1 0 0 1-3.85-1c-1.29-1-2-2.81-2-5.21a24.26 24.26 0 0 1 .26-2.52c.3-3 .56-5.52-3.22-7.1z"/><path class="cls-3" d="M12.28 29.44c-1.06-2.43-.85-6.79.42-7.3.8-.32 2.91 1.15 4.6 5.27"/><path class="cls-2" d="M12.21 29.47a10.12 10.12 0 0 1-.27-6.47 1.51 1.51 0 0 1 .73-.89c.91-.36 3.05 1.28 4.71 5.32l-.16.07c-1.73-4.22-3.81-5.51-4.49-5.23a1.37 1.37 0 0 0-.64.79 10 10 0 0 0 .27 6.4z"/><path class="cls-2" d="M12.28 30a.52.52 0 0 1-.48-.32 10.51 10.51 0 0 1-.27-6.87 1.9 1.9 0 0 1 1-1.13c1.27-.51 3.59 1.43 5.29 5.56a.53.53 0 0 1-1 .4c-1.61-3.92-3.52-5.13-3.91-5-.05 0-.22.11-.39.55a9.55 9.55 0 0 0 .25 6.05.51.51 0 0 1-.27.69.54.54 0 0 1-.22.07z"/><path class="cls-3" d="M28.92 53.89l-17 3.77a13.26 13.26 0 0 1-.42-2.55c-.22-3.48 1.06-6 1.2-9.19a1.09 1.09 0 0 0 0-.18 18.46 18.46 0 0 1-6.19-.56A6.39 6.39 0 0 1 2.89 37c1.45-3.54 5.59-6.89 10.66-9.21 2-.93 8.83-1.24 10.77.86 5.54 6.06.6 18.87 4.6 25.24z"/><path d="M14.93 40.18a5.35 5.35 0 0 0-5.22-4.66 24.61 24.61 0 0 0-6.56.95c-.09.19-.18.38-.26.57a6.39 6.39 0 0 0 3.62 8.14 18.36 18.36 0 0 0 6.17.56c1.48-1.74 2.44-4.01 2.25-5.56z" fill="#f883a0"/><g class="cls-1"><path class="cls-2" d="M14.93 40.18a5.12 5.12 0 0 0-.15-.78 7.88 7.88 0 0 1-1 3.09 3.53 3.53 0 0 1-3.15 1.81 16.52 16.52 0 0 1-4.24-.6 6.35 6.35 0 0 1-3.87-4.56 6.44 6.44 0 0 0 4 6 18.36 18.36 0 0 0 6.17.56c1.47-1.7 2.43-3.97 2.24-5.52z"/></g><path class="cls-3" d="M3.05 38.19c.08-.19.17-.38.26-.57a25 25 0 0 1 6.57-.94 5.35 5.35 0 0 1 5.21 4.59 4.15 4.15 0 0 0 0-.93 5.35 5.35 0 0 0-5.22-4.65 25 25 0 0 0-6.57.94c-.09.19-.18.38-.26.57a5.79 5.79 0 0 0-.4 2.67 6 6 0 0 1 .41-1.68z" opacity=".4"/><g class="cls-1"><path class="cls-2" d="M18.54 48.44c-3 2.26-5.73 4.41-7 6.67-.22-3.48 1.06-6 1.2-9.19.36-.08.83-.18 1.38-.32a11.82 11.82 0 0 0 7.84-4 7.69 7.69 0 0 1-3.42 6.84z"/></g><path class="cls-2" d="M28.77 54a7.06 7.06 0 0 1-1.27-2.19 11.83 11.83 0 0 1-.62-2.46l-.05-.35v-.31c0-.21-.05-.42-.07-.63 0-.41-.06-.83-.08-1.24v-7.38a33.45 33.45 0 0 0-.33-4.82 11.92 11.92 0 0 0-1.52-4.41 7.63 7.63 0 0 0-.68-.93l-.15-.2c-.06-.07-.12-.11-.18-.17l-.19-.16-.22-.14a6.77 6.77 0 0 0-2.14-.73 15.34 15.34 0 0 0-2.36-.23 18.93 18.93 0 0 0-2.38.08 12 12 0 0 0-2.3.42l-.26.09-.25.11-.55.26c-.37.17-.72.37-1.08.55A29.63 29.63 0 0 0 8 31.74a22.48 22.48 0 0 0-1.8 1.57c-.29.27-.55.57-.82.86s-.52.6-.75.92a10.11 10.11 0 0 0-1.18 2A5.4 5.4 0 0 0 3 39.26a6.17 6.17 0 0 0 1.67 4.08 5 5 0 0 0 1.8 1.26 4.72 4.72 0 0 0 .53.18l.57.13c.38.08.78.14 1.17.19a20 20 0 0 0 4.77 0 16.63 16.63 0 0 0 2.34-.43c.38-.1.76-.22 1.13-.35l.54-.22.53-.25a13.3 13.3 0 0 0 2-1.16c.33-.22.64-.45 1-.7l.24-.18.23-.19.23-.19.24-.19a.18.18 0 0 1 .25 0 .17.17 0 0 1 0 .18 6.15 6.15 0 0 1-1.54 2 8.72 8.72 0 0 1-2.17 1.39c-.39.17-.79.32-1.19.46s-.81.26-1.22.36a17.83 17.83 0 0 1-2.49.45 22.17 22.17 0 0 1-5 0c-.42-.06-.84-.12-1.25-.21l-.63-.14a6 6 0 0 1-.64-.21 6.25 6.25 0 0 1-2.21-1.45 7.23 7.23 0 0 1-2-4.8 6.28 6.28 0 0 1 .54-2.6 10.19 10.19 0 0 1 1.3-2.21c.24-.35.52-.67.79-1s.57-.63.88-.92a21.07 21.07 0 0 1 1.9-1.64 30 30 0 0 1 4.21-2.69c.37-.18.73-.38 1.11-.56l.56-.26.31-.14.32-.11a12.54 12.54 0 0 1 2.52-.47 21.23 21.23 0 0 1 2.52-.09 17.92 17.92 0 0 1 2.52.25 9.7 9.7 0 0 1 1.26.32 5.76 5.76 0 0 1 1.23.54l.29.19.28.22c.09.09.19.18.26.26l.21.25a9.74 9.74 0 0 1 .77 1.05 13 13 0 0 1 1.66 4.81 68.32 68.32 0 0 1 .33 9.88c0 .81 0 1.62.07 2.43s.09 1.6.18 2.39c0 .2 0 .4.08.59l.09.59c.07.39.14.78.23 1.16a16.19 16.19 0 0 0 .71 2.28.17.17 0 0 1-.03.21.17.17 0 0 1-.23 0z"/><path class="cls-2" d="M13.23 45.76v.78l-.09.78-.12.76c-.05.25-.1.51-.15.75-.11.5-.23 1-.34 1.48-.06.24-.12.48-.17.73s-.11.48-.15.72a15.92 15.92 0 0 0-.33 2.91c0 1 .07 1.95.11 3s0 0-.05 0a7.85 7.85 0 0 1-.75-3 14.52 14.52 0 0 1 .14-3.09c.07-.51.16-1 .26-1.5l.29-1.48c.09-.48.17-1 .24-1.45 0-.24.05-.48.08-.72l.05-.72a.53.53 0 0 1 1.05.06z"/><ellipse class="cls-2" cx="5.34" cy="39.63" rx=".67" ry="1" transform="rotate(-26.38 5.342 39.625)"/><ellipse class="cls-2" cx="10.22" cy="39.63" rx="1" ry=".67" transform="rotate(-63.62 10.216 39.623)"/><path class="cls-2" d="M7.73 43.13a10.58 10.58 0 0 0 1.08.1 4.06 4.06 0 0 0 1-.1 2.36 2.36 0 0 0 .47-.16 2.11 2.11 0 0 0 .44-.24 3.23 3.23 0 0 0 .76-.72.14.14 0 0 1 .24.11 2.17 2.17 0 0 1-.59 1.13 2.61 2.61 0 0 1-1.12.69 2.77 2.77 0 0 1-1.31 0 2.23 2.23 0 0 1-1.12-.6.15.15 0 0 1 0-.2.19.19 0 0 1 .12 0z"/><path d="M15.7 20.63l-1.24 7a.71.71 0 0 0 .47.8l.18.06a4 4 0 0 0 3.19-.24l.17-.09a.72.72 0 0 0 .34-.86l-2.31-6.73a.42.42 0 0 0-.8.06z" fill="#fdd800"/><path class="cls-3" d="M16.55 20.72a.42.42 0 0 0-.17.27l-1.24 7a.67.67 0 0 0 .13.55l-.15-.05-.19-.06a.71.71 0 0 1-.47-.8l1.24-7a.42.42 0 0 1 .8-.06z" opacity=".5"/><g class="cls-1"><path class="cls-12" d="M18.47 28.17l-.17.09a4 4 0 0 1-3.18.24l-.19-.06a.71.71 0 0 1-.47-.8v-.07a4 4 0 0 0 2.87-.34l.17-.09a.72.72 0 0 0 .34-.86l-2-5.89a.41.41 0 0 1 .66.18l2.31 6.74a.72.72 0 0 1-.34.86z"/><path class="cls-2" d="M16.42 28.8a4 4 0 0 1-1.33-.22l-.19-.06a.79.79 0 0 1-.52-.89v-.16h.09a3.93 3.93 0 0 0 2.81-.34l.17-.09a.63.63 0 0 0 .3-.76l-2-5.94a.49.49 0 0 1 .79.22l2.31 6.73a.81.81 0 0 1-.38 1l-.17.09a4.19 4.19 0 0 1-1.88.42zm-1.88-1.13a.63.63 0 0 0 .42.69l.18.07a4 4 0 0 0 3.12-.25l.17-.09a.63.63 0 0 0 .3-.76l-2.31-6.73a.29.29 0 0 0-.22-.21.34.34 0 0 0-.26 0l2 5.83a.81.81 0 0 1-.38 1l-.18.09a4.11 4.11 0 0 1-2.84.36z"/></g><path class="cls-2" d="M16.42 29.22A4.37 4.37 0 0 1 15 29l-.18-.06a1.2 1.2 0 0 1-.82-1.38l1.24-7a.88.88 0 0 1 .76-.76.9.9 0 0 1 .93.61l2.31 6.74a1.2 1.2 0 0 1-.58 1.45l-.17.09a4.46 4.46 0 0 1-2.07.53zM16.14 21L15 27.73a.21.21 0 0 0 .14.24l.19.07a3.54 3.54 0 0 0 2.78-.22l.18-.09a.22.22 0 0 0 .1-.26z"/><path class="cls-3" d="M18.58 28.22c.31-2.6 2.69-6.23 4-6 .85.13 1.91 2.45 1.28 6.83"/><path class="cls-2" d="M24 29h-.16c.64-4.48-.49-6.63-1.21-6.74a1.37 1.37 0 0 0-1 .36 9.89 9.89 0 0 0-3 5.6h-.17a10.13 10.13 0 0 1 3.06-5.71 1.45 1.45 0 0 1 1.07-.39c1 .13 2 2.62 1.41 6.88z"/><path class="cls-2" d="M23.89 29.55h-.08a.52.52 0 0 1-.44-.6c.63-4.39-.49-6.17-.84-6.23-.05 0-.24 0-.61.28a9.48 9.48 0 0 0-2.82 5.3.53.53 0 0 1-.59.46.54.54 0 0 1-.46-.59 10.43 10.43 0 0 1 3.24-6 1.83 1.83 0 0 1 1.4-.48c1.34.2 2.35 3 1.72 7.42a.53.53 0 0 1-.52.44z"/><path class="cls-10" d="M22.29 28.76a.3.3 0 0 0 .38-.24c.48-2.84 0-4.29-.45-4.33-.69-.07-2 2.16-2.51 3.94a.3.3 0 0 0 .33.37 3.94 3.94 0 0 1 1.36 0z"/><path class="cls-2" d="M22.38 28.86h-.11l-.89-.23a3.77 3.77 0 0 0-1.33 0 .39.39 0 0 1-.42-.47c.45-1.75 1.78-4 2.56-4a.48.48 0 0 1 .31.2c.35.46.62 1.84.21 4.23a.38.38 0 0 1-.37.32zm-1.73-.49a3.27 3.27 0 0 1 .76.08l.91.23a.2.2 0 0 0 .17 0 .23.23 0 0 0 .1-.15c.4-2.33.15-3.67-.18-4.1a.35.35 0 0 0-.2-.14c-.62-.06-2 2.08-2.42 3.88a.19.19 0 0 0 .05.19.21.21 0 0 0 .19.08 3.7 3.7 0 0 1 .62-.07z"/><path class="cls-10" d="M22.67 28.52a.3.3 0 0 1-.38.24l-.48-.13-.41-.1a3.94 3.94 0 0 0-1.36 0 .3.3 0 0 1-.33-.37 9.88 9.88 0 0 1 1.5-3.16c.37-.5.74-.82 1-.79.47.02.94 1.47.46 4.31z"/><path class="cls-2" d="M22.38 28.85h-.11l-.48-.13-.41-.1a4.05 4.05 0 0 0-1.33 0 .37.37 0 0 1-.33-.12.38.38 0 0 1-.08-.34 9.81 9.81 0 0 1 1.51-3.18c.29-.39.72-.85 1.08-.82a.44.44 0 0 1 .3.2c.35.46.62 1.84.22 4.23a.37.37 0 0 1-.17.25.36.36 0 0 1-.2.01zm-1.73-.47a3.33 3.33 0 0 1 .76.08l.42.1.48.13a.19.19 0 0 0 .18 0 .21.21 0 0 0 .11-.15c.39-2.34.14-3.67-.19-4.11a.32.32 0 0 0-.2-.14c-.21 0-.56.26-.94.77a9.55 9.55 0 0 0-1.48 3.12.21.21 0 0 0 0 .2.23.23 0 0 0 .2.07 5.38 5.38 0 0 1 .66-.07z"/><g class="cls-1"><path class="cls-2" d="M21.81 28.63l-.41-.1a3.94 3.94 0 0 0-1.36 0 .3.3 0 0 1-.33-.37 9.88 9.88 0 0 1 1.5-3.16h.05c.42 0 .85 1.24.55 3.63z"/></g><path class="cls-2" d="M22.38 29.1a.55.55 0 0 1-.18 0c-.25-.07-.54-.15-.88-.22a3.22 3.22 0 0 0-1.23 0 .65.65 0 0 1-.56-.21.63.63 0 0 1-.14-.57c.39-1.54 1.77-4.3 2.86-4.19a.65.65 0 0 1 .48.3c.41.52.68 2 .27 4.42a.65.65 0 0 1-.29.43.66.66 0 0 1-.33.04zm0-.65zm-1.73-.32a3.93 3.93 0 0 1 .82.08c.33.08.63.15.88.23.44-2.59 0-3.78-.18-3.92-.39 0-1.65 1.83-2.13 3.65a3.82 3.82 0 0 1 .61-.04zm-6.08-.66a.41.41 0 0 1-.4-.28.42.42 0 0 1 .26-.52 5.65 5.65 0 0 0 3.08-2.29.4.4 0 0 1 .55-.17.41.41 0 0 1 .18.55 6.26 6.26 0 0 1-3.54 2.69.32.32 0 0 1-.13.02zm.57-3.24a.41.41 0 0 1-.17-.79 3.63 3.63 0 0 0 1.68-1.53.42.42 0 0 1 .56-.18.41.41 0 0 1 .18.55 4.38 4.38 0 0 1-2.08 1.91.35.35 0 0 1-.17.04zM34.54 90c-.44.1-2 .46-5.27-2.1s-3.6-4.9-2.46-5.4 4 .35 6.13 2.77c2.29 2.64 2.46 4.56 1.6 4.73zm-18.86-5.69c-.49-.07-2.23-.34-4.55-4.34s-1.67-6.54-.28-6.6 4 2 5.16 5.38c1.26 3.66.64 5.71-.33 5.56z"/><g class="cls-1"><path class="cls-2" d="M58.13 76.87l-.08.13c0 .06-.07.12-.11.17l-.09.14a.76.76 0 0 1-.08.11l-.09.14-.11.15-.08.11-.15.19-.17.21-.15.18-.08.09-.13.14a.93.93 0 0 1-.14.14l-.06.07-.17.16-.07.08-.13.12-.14.12-.24.21-.25.2a13.39 13.39 0 0 1-1.48 1l-.22.12h-.09l-.2.12-.19.09h-.08l-.35.34h-.11l-.18.09-.16.08-.2.09h-.07l-.3.13-.34.15-.34.13c-.59.23-1.22.44-1.87.64l-.66.2-.22.06-.33.09-.37.09h-.08l-.32.08-.35.09-.34.07h-.07l-.36.08c-.82.18-1.68.35-2.58.5l-1.07.18c-3.27.53-3.92 3.62-5.21 5.09a2.21 2.21 0 0 1-1 .7c-3.83 1.72-10.6-4-11.21-7.29a4.39 4.39 0 0 1-.09-.68 9.58 9.58 0 0 0 2.47 3.44c2.28 2.16 6.42 4.58 8 1s2.7-6.13 7.1-6c3.38.1 11.26.02 15.39-3.54z"/></g><g class="cls-1"><path class="cls-2" d="M32.42 75.29a10.64 10.64 0 0 0-1.81 4.63s-5-1.69-5.4 1.52c-3.18 1-4.22 4.32-7.76 4.27-2.07 0-4.32-2.27-5.93-5A7.56 7.56 0 0 0 16 82.45c4.12.12 5.55-4 9.19-4.54s6.28-1.56 7.23-2.62z"/></g><ellipse class="cls-2" cx="19.54" cy="35.73" rx="3.54" ry="2.54" transform="rotate(-82.37 19.542 35.724)"/><ellipse class="cls-3" cx="20.51" cy="35.12" rx="1.22" ry=".68" transform="rotate(-83.6 20.505 35.118)"/><ellipse class="cls-3" cx="18.22" cy="36.53" rx=".61" ry=".34" transform="rotate(-80.53 18.22 36.53)"/><path class="cls-2" d="M13.26 46a.51.51 0 0 1-.32-.12.49.49 0 0 1 0-.7 6.23 6.23 0 0 0 1.55-5A4.86 4.86 0 0 0 9.7 36a24.19 24.19 0 0 0-6.41.92.5.5 0 0 1-.62-.33A.51.51 0 0 1 3 36a25 25 0 0 1 6.71-1 5.85 5.85 0 0 1 5.7 5.09 7.14 7.14 0 0 1-1.78 5.72.49.49 0 0 1-.37.19z"/></g></g></svg>